<?xml version="1.0" encoding="utf-8"?>
<!-- Generator: Adobe Illustrator 16.0.0, SVG Export Plug-In . SVG Version: 6.00 Build 0)  -->
<!DOCTYPE svg PUBLIC "-//W3C//DTD SVG 1.1//EN" "http://www.w3.org/Graphics/SVG/1.1/DTD/svg11.dtd">
<svg version="1.1" id="Layer_1" xmlns="http://www.w3.org/2000/svg" xmlns:xlink="http://www.w3.org/1999/xlink" x="0px" y="0px"
	 width="928.571px" height="857.152px" viewBox="0 0 928.571 857.152" enable-background="new 0 0 928.571 857.152"
	 xml:space="preserve">
<path fill="#81868A" d="M714.241,750.016c0-9.672-3.535-18.042-10.604-25.109c-7.066-7.068-15.438-10.603-25.109-10.603
	s-18.041,3.534-25.109,10.603c-7.068,7.067-10.602,15.438-10.602,25.109s3.533,18.042,10.602,25.11s15.438,10.602,25.109,10.602
	s18.043-3.533,25.109-10.602C710.706,768.058,714.241,759.688,714.241,750.016z M857.088,750.016
	c0-9.672-3.535-18.042-10.602-25.109c-7.068-7.068-15.439-10.603-25.111-10.603s-18.041,3.534-25.109,10.603
	c-7.068,7.067-10.602,15.438-10.602,25.109s3.533,18.042,10.602,25.11s15.438,10.602,25.109,10.602s18.043-3.533,25.111-10.602
	C853.553,768.058,857.088,759.688,857.088,750.016z M928.512,625.024v178.56c0,14.88-5.209,27.528-15.625,37.944
	s-23.062,15.624-37.943,15.624H53.568c-14.88,0-27.528-5.208-37.944-15.624S0,818.464,0,803.584v-178.56
	c0-14.881,5.208-27.528,15.624-37.944s23.064-15.624,37.944-15.624h259.47l75.33,75.888c21.576,20.832,46.872,31.248,75.888,31.248
	c29.016,0,54.313-10.416,75.887-31.248l75.889-75.888h258.912c14.881,0,27.527,5.208,37.943,15.624S928.512,610.144,928.512,625.024
	L928.512,625.024z M747.163,307.522c6.324,15.252,3.719,28.272-7.812,39.06L489.366,596.566
	c-6.695,7.067-15.066,10.602-25.11,10.602c-10.044,0-18.414-3.534-25.109-10.602L189.162,346.582
	c-11.532-10.788-14.136-23.808-7.812-39.06c6.324-14.508,17.298-21.762,32.922-21.762H357.12V35.776
	c0-9.672,3.534-18.042,10.602-25.11c7.068-7.068,15.438-10.602,25.11-10.602H535.68c9.672,0,18.041,3.534,25.109,10.602
	s10.602,15.438,10.602,25.11V285.76h142.85C729.864,285.76,740.838,293.014,747.163,307.522z"/>
</svg>
