<?xml version="1.0" encoding="utf-8"?>
<!-- Generator: Adobe Illustrator 16.0.0, SVG Export Plug-In . SVG Version: 6.00 Build 0)  -->
<!DOCTYPE svg PUBLIC "-//W3C//DTD SVG 1.1//EN" "http://www.w3.org/Graphics/SVG/1.1/DTD/svg11.dtd">
<svg version="1.1" id="Layer_1" xmlns="http://www.w3.org/2000/svg" xmlns:xlink="http://www.w3.org/1999/xlink" x="0px" y="0px"
	 width="222.48px" height="412px" viewBox="143.76 50 222.48 412" enable-background="new 143.76 50 222.48 412"
	 xml:space="preserve">
<path fill="#81868A" d="M366.24,82.96c0-18.202-14.758-32.96-32.96-32.96H176.72c-18.202,0-32.96,14.758-32.96,32.96v346.08
	c0,18.202,14.758,32.96,32.96,32.96h156.56c18.202,0,32.96-14.758,32.96-32.96V82.96z M238.653,87.08h32.958
	c2.277,0,4.121,1.845,4.121,4.12c0,2.275-1.844,4.12-4.121,4.12h-32.958c-2.275,0-4.12-1.845-4.12-4.12
	C234.533,88.925,236.378,87.08,238.653,87.08z M253.761,442.494c-9.101,0-16.486-7.379-16.486-16.479
	c0-9.102,7.385-16.479,16.486-16.479s16.472,7.379,16.472,16.479S262.861,442.494,253.761,442.494z M345.64,396.08H164.36V120.04
	h181.28V396.08z"/>
</svg>
