<?xml version="1.0" encoding="utf-8"?>
<!-- Generator: Adobe Illustrator 22.0.1, SVG Export Plug-In . SVG Version: 6.00 Build 0)  -->
<!DOCTYPE svg PUBLIC "-//W3C//DTD SVG 1.1//EN" "http://www.w3.org/Graphics/SVG/1.1/DTD/svg11.dtd">
<svg version="1.1" id="Icon" xmlns="http://www.w3.org/2000/svg" xmlns:xlink="http://www.w3.org/1999/xlink" x="0px" y="0px"
	 viewBox="0 0 132.8 34" style="enable-background:new 0 0 132.8 34;" xml:space="preserve">
<style type="text/css">
	.st0{fill:#777878;}
	.st1{fill:#FFFFFF;}
	.st2{fill:#FAB908;}
	.st3{fill:#0066D9;}
	.st4{fill:#4285F4;}
	.st5{fill:#EA4335;}
	.st6{fill:#34A853;}
	.st7{fill:none;}
	.st8{fill:#3C4043;}
</style>
<g id="XMLID_24_">
	<path id="XMLID_47_" class="st0" d="M132.786,9.073c0-0.33,0-0.66-0.004-0.99c-0.024-0.72-0.067-1.441-0.198-2.152
		c-0.123-0.721-0.338-1.393-0.667-2.047c-0.332-0.644-0.759-1.234-1.271-1.743c-0.507-0.509-1.097-0.937-1.738-1.266
		c-0.66-0.333-1.33-0.549-2.052-0.675c-0.706-0.128-1.429-0.171-2.149-0.189c-0.329-0.005-0.664-0.011-0.992-0.014
		c-0.386-0.002-0.778-0.002-1.165-0.002H10.255c-0.394,0-0.784,0-1.177,0.002C8.749-0.001,8.423,0.004,8.09,0.01
		c-0.715,0.018-1.44,0.062-2.154,0.189c-0.72,0.127-1.389,0.342-2.044,0.675C3.249,1.204,2.661,1.632,2.152,2.141
		C1.638,2.65,1.211,3.24,0.886,3.884C0.551,4.538,0.339,5.21,0.213,5.931c-0.13,0.711-0.174,1.432-0.193,2.152
		c-0.01,0.33-0.011,0.66-0.016,0.99c0,0.39,0,0.78,0,1.173v13.509c0,0.397,0,0.786,0,1.177c0.005,0.333,0.006,0.658,0.016,0.99
		c0.018,0.721,0.063,1.442,0.193,2.153c0.125,0.721,0.338,1.395,0.672,2.047c0.326,0.641,0.752,1.231,1.266,1.736
		c0.509,0.513,1.096,0.941,1.741,1.266c0.655,0.337,1.324,0.549,2.044,0.679c0.714,0.129,1.439,0.171,2.154,0.191
		C8.423,34,8.749,34.004,9.078,34.004c0.393,0.002,0.783,0.002,1.177,0.002H122.55c0.386,0,0.778,0,1.165-0.002
		c0.328,0,0.662-0.004,0.992-0.011c0.72-0.02,1.443-0.062,2.149-0.191c0.722-0.13,1.392-0.342,2.052-0.679
		c0.642-0.326,1.232-0.753,1.738-1.266c0.512-0.505,0.939-1.095,1.271-1.736c0.329-0.652,0.543-1.326,0.667-2.047
		c0.131-0.711,0.174-1.432,0.198-2.153c0.004-0.332,0.004-0.657,0.004-0.99c0.01-0.391,0.01-0.779,0.01-1.177V10.246
		C132.795,9.853,132.795,9.463,132.786,9.073z"/>
</g>
<path id="XMLID_46_" class="st1" d="M132.13,23.755c0,0.392,0,0.775-0.009,1.177c0,0.328,0,0.653-0.005,0.97
	c-0.018,0.621-0.057,1.35-0.187,2.06c-0.115,0.67-0.313,1.279-0.603,1.855c-0.304,0.585-0.688,1.115-1.152,1.576
	c-0.458,0.459-0.985,0.844-1.57,1.143c-0.569,0.29-1.181,0.491-1.865,0.615c-0.71,0.125-1.435,0.161-2.045,0.18
	c-0.328,0.006-0.656,0.011-0.983,0.011c-0.386,0.002-0.777,0.002-1.161,0.002H10.255c-0.392,0-0.781,0-1.177-0.002
	c-0.325,0-0.647-0.004-0.968-0.011c-0.617-0.018-1.343-0.054-2.058-0.18c-0.682-0.123-1.29-0.325-1.858-0.615
	c-0.58-0.294-1.107-0.681-1.575-1.149c-0.459-0.455-0.842-0.982-1.142-1.567c-0.29-0.571-0.489-1.178-0.611-1.865
	c-0.134-0.736-0.167-1.481-0.181-2.053c-0.008-0.227-0.011-0.456-0.013-0.685l-0.004-0.285v-1.177V10.246V9.082l0.004-0.298
	C0.676,8.558,0.679,8.33,0.686,8.099c0.014-0.567,0.047-1.312,0.182-2.053C0.988,5.36,1.188,4.753,1.48,4.184
	C1.778,3.597,2.161,3.07,2.624,2.612c0.463-0.464,0.991-0.849,1.572-1.145C4.77,1.174,5.38,0.972,6.052,0.853
	c0.73-0.129,1.482-0.162,2.05-0.18L9.08,0.659c0.394-0.003,0.784-0.003,1.175-0.003H122.55c0.384,0,0.775,0,1.159,0.003l0.054,0.002
	l0.924,0.012c0.575,0.017,1.327,0.051,2.051,0.18c0.676,0.119,1.285,0.321,1.865,0.614c0.584,0.298,1.112,0.682,1.571,1.145
	c0.462,0.461,0.846,0.989,1.147,1.571c0.293,0.579,0.492,1.189,0.606,1.869c0.13,0.701,0.169,1.432,0.187,2.045
	c0.005,0.325,0.005,0.651,0.005,0.989c0.009,0.387,0.009,0.771,0.009,1.16V23.755z"/>
<g>
	<path class="st0" d="M37.183,13.023h-3.917V6.572h0.805v5.727h3.112V13.023z"/>
	<path class="st0" d="M38.163,7.108c0-0.268,0.219-0.483,0.483-0.483c0.268,0,0.487,0.215,0.487,0.483
		c0,0.264-0.219,0.483-0.487,0.483C38.381,7.591,38.163,7.372,38.163,7.108z M38.256,8.373h0.778v4.65h-0.778V8.373z"/>
	<path class="st0" d="M42.011,8.333c0.957,0,1.677,0.563,1.704,1.337h-0.742c-0.045-0.434-0.42-0.702-0.988-0.702
		c-0.563,0-0.943,0.269-0.943,0.667c0,0.313,0.246,0.519,0.773,0.652l0.72,0.174c0.939,0.237,1.278,0.568,1.278,1.243
		c0,0.8-0.769,1.364-1.851,1.364c-1.015,0-1.739-0.545-1.811-1.359h0.778c0.076,0.474,0.456,0.724,1.082,0.724
		c0.626,0,1.02-0.259,1.02-0.67c0-0.322-0.192-0.492-0.715-0.63l-0.818-0.21c-0.818-0.21-1.22-0.622-1.22-1.248
		C40.277,8.887,40.992,8.333,42.011,8.333z"/>
	<path class="st0" d="M45.916,7.251v1.122h0.903v0.64h-0.903v2.758c0,0.425,0.179,0.617,0.577,0.617
		c0.089,0,0.268-0.014,0.322-0.022v0.653c-0.094,0.022-0.309,0.036-0.492,0.036c-0.854,0-1.185-0.349-1.185-1.243V9.013h-0.693
		v-0.64h0.693V7.251H45.916z"/>
	<path class="st0" d="M51.632,11.69c-0.129,0.805-0.939,1.377-1.936,1.377c-1.314,0-2.142-0.908-2.142-2.352
		c0-1.444,0.832-2.387,2.105-2.387c1.248,0,2.03,0.876,2.03,2.285v0.295h-3.335v0.045c0,0.872,0.541,1.439,1.359,1.439
		c0.572,0,1.024-0.273,1.153-0.702H51.632z M48.359,10.3h2.526c-0.018-0.778-0.514-1.296-1.238-1.296
		C48.927,9.004,48.409,9.527,48.359,10.3z"/>
	<path class="st0" d="M52.741,8.373h0.733v0.76h0.018c0.291-0.532,0.755-0.805,1.475-0.805c1.02,0,1.61,0.657,1.61,1.712v2.982
		h-0.778V10.18c0-0.751-0.349-1.163-1.073-1.163c-0.751,0-1.207,0.523-1.207,1.31v2.696h-0.778V8.373z"/>
	<path class="st0" d="M59.756,10.698c0-1.449,0.84-2.37,2.155-2.37c1.31,0,2.15,0.921,2.15,2.37c0,1.444-0.84,2.37-2.15,2.37
		C60.596,13.068,59.756,12.142,59.756,10.698z M63.27,10.698c0-1.06-0.505-1.686-1.359-1.686c-0.858,0-1.364,0.63-1.364,1.686
		c0,1.06,0.51,1.686,1.364,1.686S63.27,11.758,63.27,10.698z"/>
	<path class="st0" d="M65.112,8.373h0.733v0.76h0.018c0.291-0.532,0.755-0.805,1.475-0.805c1.02,0,1.61,0.657,1.61,1.712v2.982
		h-0.778V10.18c0-0.751-0.349-1.163-1.073-1.163c-0.751,0-1.207,0.523-1.207,1.31v2.696h-0.778V8.373z"/>
</g>
<g id="Podcast_icon_final" transform="translate(5.000000, 5.000000)">
	<g id="_logo_Podcasts_192px" transform="translate(1.000000, 1.000000)">
		<polygon id="Shape" class="st2" points="10.12,7 10.12,10.333 10.12,11.666 10.12,15 12.87,15 12.87,11.666 12.87,10.333 12.87,7 
					"/>
		<circle id="Oval" class="st3" cx="1.87" cy="10.25" r="1.375"/>
		<circle id="Oval_1_" class="st3" cx="1.87" cy="11.75" r="1.375"/>
		<rect id="Rectangle-path" x="0.495" y="10.25" class="st3" width="2.75" height="1.5"/>
		<circle id="Oval_2_" class="st4" cx="21.12" cy="11.75" r="1.375"/>
		<circle id="Oval_3_" class="st4" cx="21.12" cy="10.25" r="1.375"/>
		<rect id="Rectangle-path_1_" x="19.745" y="10.25" class="st4" width="2.75" height="1.5"/>
		<circle id="Oval_4_" class="st5" cx="6.62" cy="14.75" r="1.375"/>
		<circle id="Oval_5_" class="st5" cx="6.62" cy="16.25" r="1.375"/>
		<rect id="Rectangle-path_2_" x="5.245" y="14.75" class="st5" width="2.75" height="1.5"/>
		<circle id="Oval_6_" class="st5" cx="6.62" cy="5.75" r="1.375"/>
		<circle id="Oval_7_" class="st5" cx="6.62" cy="10.625" r="1.375"/>
		<rect id="Rectangle-path_3_" x="5.245" y="5.75" class="st5" width="2.75" height="4.906"/>
		<circle id="Oval_8_" class="st6" cx="16.37" cy="7.25" r="1.375"/>
		<circle id="Oval_9_" class="st6" cx="16.37" cy="5.75" r="1.375"/>
		<rect id="Rectangle-path_4_" x="14.995" y="5.75" class="st6" width="2.75" height="1.5"/>
		<circle id="Oval_10_" class="st2" cx="11.495" cy="2.875" r="1.375"/>
		<circle id="Oval_11_" class="st2" cx="11.495" cy="1.375" r="1.375"/>
		<rect id="Rectangle-path_5_" x="10.12" y="1.375" class="st2" width="2.75" height="1.5"/>
		<circle id="Oval_12_" class="st2" cx="11.495" cy="20.625" r="1.375"/>
		<circle id="Oval_13_" class="st2" cx="11.495" cy="19.125" r="1.375"/>
		<rect id="Rectangle-path_6_" x="10.12" y="19.125" class="st2" width="2.75" height="1.5"/>
		<circle id="Oval_14_" class="st6" cx="16.37" cy="16.25" r="1.375"/>
		<circle id="Oval_15_" class="st6" cx="16.37" cy="11.375" r="1.375"/>
		<rect id="Rectangle-path_7_" x="14.995" y="11.375" class="st6" width="2.75" height="4.875"/>
		<circle id="Oval_16_" class="st2" cx="11.495" cy="7" r="1.375"/>
		<circle id="Oval_17_" class="st2" cx="11.495" cy="15" r="1.375"/>
	</g>
</g>
<g id="Group" transform="translate(35.000000, 16.000000)">
	<polygon id="Rectangle-path_8_" class="st7" points="-2.473,0 91.041,0 91.041,14.387 -2.473,14.387 	"/>
	<path id="Podcasts" class="st8" d="M43.683,10.79h-1.177V1.634h3.12c0.776,0,1.447,0.258,2.014,0.774
		c0.567,0.516,0.85,1.166,0.85,1.95s-0.283,1.434-0.85,1.95c-0.567,0.516-1.238,0.774-2.014,0.774h-1.944V10.79z M43.683,5.956
		h1.969c0.494,0,0.891-0.166,1.189-0.499c0.298-0.332,0.448-0.699,0.448-1.1s-0.149-0.767-0.448-1.1s-0.695-0.499-1.189-0.499
		h-1.969V5.956z M49.467,5.278c0.605-0.639,1.377-0.959,2.315-0.959c0.938,0,1.709,0.318,2.315,0.953
		c0.605,0.635,0.908,1.43,0.908,2.385s-0.303,1.75-0.908,2.385c-0.605,0.635-1.377,0.953-2.315,0.953
		c-0.938,0-1.709-0.318-2.315-0.953s-0.908-1.43-0.908-2.385S48.862,5.909,49.467,5.278z M50.337,9.307
		c0.409,0.409,0.891,0.614,1.445,0.614c0.554,0,1.034-0.207,1.439-0.62c0.405-0.413,0.607-0.961,0.607-1.643
		s-0.202-1.23-0.607-1.643c-0.405-0.413-0.885-0.62-1.439-0.62c-0.554,0-1.034,0.207-1.439,0.62
		c-0.405,0.413-0.607,0.961-0.607,1.643S49.936,8.889,50.337,9.307z M58.551,10.995c-0.81,0-1.509-0.32-2.097-0.959
		c-0.588-0.639-0.882-1.432-0.882-2.379s0.294-1.739,0.882-2.379c0.588-0.639,1.287-0.959,2.097-0.959
		c0.477,0,0.906,0.102,1.285,0.307s0.663,0.46,0.85,0.767h0.051l-0.051-0.87v-2.89h1.177v9.156h-1.125V9.92h-0.051
		c-0.188,0.307-0.471,0.563-0.85,0.767C59.456,10.892,59.028,10.995,58.551,10.995z M58.742,9.92c0.554,0,1.025-0.205,1.413-0.614
		c0.388-0.409,0.582-0.959,0.582-1.65s-0.194-1.24-0.582-1.65c-0.388-0.409-0.859-0.614-1.413-0.614
		c-0.546,0-1.015,0.207-1.407,0.62s-0.588,0.961-0.588,1.643s0.196,1.23,0.588,1.643S58.197,9.92,58.742,9.92z M65.946,10.995
		c-0.938,0-1.709-0.318-2.315-0.953c-0.605-0.635-0.908-1.43-0.908-2.385s0.303-1.75,0.908-2.385
		c0.605-0.635,1.377-0.953,2.315-0.953c0.699,0,1.279,0.171,1.739,0.512c0.46,0.341,0.797,0.772,1.01,1.292L67.621,6.57
		c-0.324-0.784-0.908-1.177-1.752-1.177c-0.52,0-0.978,0.213-1.375,0.639C64.098,6.459,63.9,7.001,63.9,7.657
		s0.198,1.198,0.595,1.624c0.396,0.426,0.855,0.639,1.375,0.639c0.878,0,1.483-0.392,1.816-1.177l1.049,0.448
		c-0.213,0.512-0.556,0.94-1.029,1.285C67.231,10.822,66.645,10.995,65.946,10.995z M71.525,10.995
		c-0.665,0-1.221-0.192-1.669-0.575s-0.671-0.891-0.671-1.522c0-0.682,0.264-1.217,0.793-1.605c0.529-0.388,1.181-0.582,1.957-0.582
		c0.691,0,1.258,0.128,1.701,0.384V6.915c0-0.46-0.158-0.829-0.473-1.106c-0.315-0.277-0.703-0.416-1.164-0.416
		c-0.341,0-0.65,0.081-0.927,0.243c-0.277,0.162-0.467,0.384-0.569,0.665l-1.074-0.46c0.145-0.375,0.431-0.723,0.857-1.042
		c0.426-0.32,0.989-0.48,1.688-0.48c0.801,0,1.466,0.234,1.995,0.703c0.529,0.469,0.793,1.13,0.793,1.982v3.785h-1.125V9.92h-0.051
		C73.115,10.637,72.429,10.995,71.525,10.995z M71.717,9.92c0.486,0,0.927-0.181,1.324-0.544c0.396-0.362,0.595-0.791,0.595-1.285
		c-0.332-0.273-0.831-0.409-1.496-0.409c-0.571,0-1.002,0.124-1.292,0.371c-0.29,0.247-0.435,0.537-0.435,0.87
		c0,0.307,0.132,0.55,0.396,0.729C71.073,9.831,71.376,9.92,71.717,9.92z M78.204,10.995c-0.699,0-1.277-0.171-1.733-0.512
		c-0.456-0.341-0.791-0.767-1.004-1.279l1.049-0.435c0.332,0.784,0.899,1.177,1.701,1.177c0.367,0,0.667-0.081,0.902-0.243
		c0.234-0.162,0.352-0.375,0.352-0.639c0-0.409-0.286-0.686-0.857-0.831l-1.266-0.307c-0.401-0.102-0.78-0.296-1.138-0.582
		c-0.358-0.286-0.537-0.671-0.537-1.157c0-0.554,0.245-1.004,0.735-1.349c0.49-0.345,1.072-0.518,1.746-0.518
		c0.554,0,1.049,0.126,1.483,0.377c0.435,0.252,0.746,0.612,0.934,1.081l-1.023,0.422c-0.23-0.554-0.708-0.831-1.432-0.831
		c-0.35,0-0.644,0.072-0.882,0.217s-0.358,0.341-0.358,0.588c0,0.358,0.277,0.601,0.831,0.729l1.24,0.294
		c0.588,0.136,1.023,0.371,1.304,0.703c0.281,0.332,0.422,0.708,0.422,1.125c0,0.563-0.23,1.032-0.691,1.407
		C79.521,10.807,78.929,10.995,78.204,10.995z M84.193,10.892c-0.656,0-1.157-0.175-1.503-0.524
		c-0.345-0.35-0.518-0.844-0.518-1.483V5.598h-1.1V4.524h1.1V2.606h1.177v1.918h1.535v1.074h-1.535v3.197
		c0,0.682,0.281,1.023,0.844,1.023c0.213,0,0.392-0.034,0.537-0.102l0.409,1.01C84.883,10.837,84.568,10.892,84.193,10.892z
		 M88.314,10.995c-0.699,0-1.277-0.171-1.733-0.512c-0.456-0.341-0.791-0.767-1.004-1.279l1.049-0.435
		c0.333,0.784,0.899,1.177,1.701,1.177c0.367,0,0.667-0.081,0.902-0.243c0.234-0.162,0.352-0.375,0.352-0.639
		c0-0.409-0.286-0.686-0.857-0.831l-1.266-0.307c-0.401-0.102-0.78-0.296-1.138-0.582c-0.358-0.286-0.537-0.671-0.537-1.157
		c0-0.554,0.245-1.004,0.735-1.349c0.49-0.345,1.072-0.518,1.746-0.518c0.554,0,1.049,0.126,1.483,0.377
		c0.435,0.252,0.746,0.612,0.934,1.081l-1.023,0.422c-0.23-0.554-0.708-0.831-1.432-0.831c-0.35,0-0.644,0.072-0.882,0.217
		c-0.239,0.145-0.358,0.341-0.358,0.588c0,0.358,0.277,0.601,0.831,0.729l1.24,0.294c0.588,0.136,1.023,0.371,1.304,0.703
		c0.281,0.332,0.422,0.708,0.422,1.125c0,0.563-0.23,1.032-0.691,1.407C89.631,10.807,89.039,10.995,88.314,10.995z"/>
	<path id="Combined-Shape" class="st8" d="M-2.174,5.745c0-2.897,2.428-5.245,5.325-5.245c1.599,0,2.737,0.629,3.597,1.449
		L5.729,2.957C5.12,2.378,4.29,1.928,3.151,1.928c-2.108,0-3.757,1.698-3.757,3.807s1.648,3.807,3.757,3.807
		c1.369,0,2.148-0.549,2.648-1.049c0.41-0.41,0.679-0.999,0.779-1.798H3.151V5.265h4.826c0.05,0.26,0.08,0.559,0.08,0.899
		c0,1.079-0.29,2.408-1.239,3.347C5.889,10.47,4.71,10.98,3.151,10.98C0.254,10.98-2.174,8.632-2.174,5.745z M11.903,4.296
		c1.868,0,3.387,1.419,3.387,3.377c0,1.948-1.519,3.377-3.387,3.377S8.517,9.621,8.517,7.673C8.517,5.715,10.035,4.296,11.903,4.296
		z M11.903,9.711c1.019,0,1.908-0.839,1.908-2.048c0-1.219-0.889-2.048-1.908-2.048c-1.029,0-1.908,0.829-1.908,2.048
		C9.995,8.872,10.884,9.711,11.903,9.711z M19.297,4.296c1.868,0,3.387,1.419,3.387,3.377c0,1.948-1.519,3.377-3.387,3.377
		c-1.868,0-3.387-1.429-3.387-3.377C15.91,5.715,17.428,4.296,19.297,4.296z M19.297,9.711c1.019,0,1.908-0.839,1.908-2.048
		c0-1.219-0.879-2.048-1.908-2.048c-1.029,0-1.908,0.829-1.908,2.048C17.388,8.872,18.278,9.711,19.297,9.711z M28.368,4.406h1.419
		v6.064c0,2.498-1.469,3.517-3.207,3.517c-1.638,0-2.628-1.099-2.997-1.998l1.289-0.54c0.23,0.549,0.789,1.199,1.698,1.199
		c1.109,0,1.798-0.689,1.798-1.978v-0.49h-0.05c-0.33,0.41-0.969,0.769-1.778,0.769c-1.688,0-3.237-1.479-3.237-3.367
		c0-1.908,1.549-3.387,3.237-3.387c0.809,0,1.449,0.36,1.778,0.759h0.05V4.406z M26.67,9.621c1.009,0,1.808-0.849,1.798-2.038
		c0-1.189-0.789-2.058-1.798-2.058c-1.019,0-1.878,0.869-1.878,2.058C24.792,8.762,25.651,9.621,26.67,9.621z M30.796,10.82V0.899
		h1.479v9.921H30.796z M36.341,9.711c0.759,0,1.279-0.37,1.668-0.929l1.149,0.769c-0.38,0.549-1.269,1.499-2.817,1.499
		c-1.918,0-3.347-1.489-3.347-3.377c0-2.008,1.449-3.377,3.187-3.377c1.748,0,2.608,1.389,2.887,2.148l0.15,0.38l-4.516,1.868
		C35.052,9.361,35.582,9.711,36.341,9.711z M36.231,5.595c-0.759,0-1.808,0.669-1.768,1.968l3.017-1.249
		C37.32,5.885,36.821,5.595,36.231,5.595z"/>
</g>
</svg>
